# xmcd CD database file
#
# Track frame offsets:
#	150
#	11909
#	47142
#	71185
#	83164
#	93549
#	105868
#	127950
#	142811
#	155698
#	167155
#	179602
#	191925
#
# Disc length: 2995 seconds
#
# Revision: 0
# Processed by: cddbd v1.5.2PL0 Copyright (c) Steve Scherf et al.
# Submitted via: CDex 1.70beta2
#
DISCID=b40bb10d
DTITLE=Dave Brubeck - I'll Remember April CD2
DYEAR=1900
DGENRE=Jazz
TTITLE0=My Romance
TTITLE1=Perfido
TTITLE2=Sometimes I'm Happy
TTITLE3=Love Walked In
TTITLE4=Perfidia
TTITLE5=The Duke
TTITLE6=Lover
TTITLE7=Somebody Loves Me
TTITLE8=At A Perfume Counter
TTITLE9=I Didn't Know What Time It Was
TTITLE10=Always
TTITLE11=What Is This Thing Called Love
TTITLE12=Fare Thee Well Annabelle
EXTD=
EXTT0=
EXTT1=
EXTT2=
EXTT3=
EXTT4=
EXTT5=
EXTT6=
EXTT7=
EXTT8=
EXTT9=
EXTT10=
EXTT11=
EXTT12=
PLAYORDER=
